<svg width="295" height="660" viewBox="0 0 295 660" fill="none" xmlns="http://www.w3.org/2000/svg">
<path d="M279.621 137.186C348.56 90.7191 418.424 59.7884 475.621 47.3185C504.223 41.0829 529.605 39.4749 550.1 42.8118C570.592 46.1483 586.1 54.4078 595.143 67.8246C604.187 81.2414 606.024 98.7158 601.427 118.962C596.831 139.211 585.816 162.136 569.304 186.308C536.284 234.648 481.399 287.801 412.461 334.268C343.522 380.735 273.658 411.666 216.461 424.136C187.859 430.371 162.476 431.979 141.982 428.642C121.49 425.306 105.982 417.046 96.9385 403.629C87.8952 390.213 86.0581 372.738 90.6543 352.492C95.251 332.243 106.265 309.318 122.777 285.146C155.798 236.806 210.682 183.653 279.621 137.186Z" stroke="white" stroke-width="2"/>
<path d="M337.821 157.463C406.76 110.996 476.623 80.0656 533.821 67.5957C562.423 61.3601 587.805 59.7522 608.299 63.089C628.791 66.4255 644.3 74.6851 653.343 88.1019C662.386 101.519 664.223 118.993 659.627 139.24C655.03 159.488 644.016 182.413 627.504 206.586C594.484 254.925 539.599 308.079 470.66 354.545C401.722 401.012 331.858 431.943 274.66 444.413C246.058 450.648 220.676 452.256 200.182 448.919C179.69 445.583 164.182 437.323 155.138 423.907C146.095 410.49 144.258 393.015 148.854 372.769C153.451 352.52 164.465 329.595 180.977 305.423C213.997 257.083 268.882 203.93 337.821 157.463Z" stroke="white" stroke-width="2"/>
<path d="M396.021 177.74C464.96 131.274 534.823 100.343 592.021 87.873C620.623 81.6374 646.005 80.0295 666.5 83.3664C686.991 86.7028 702.5 94.9624 711.543 108.379C720.586 121.796 722.424 139.27 717.827 159.517C713.231 179.766 702.216 202.69 685.704 226.863C652.684 275.203 597.799 328.356 528.86 374.823C459.922 421.29 390.058 452.22 332.86 464.69C304.259 470.926 278.876 472.534 258.382 469.197C237.89 465.86 222.382 457.601 213.338 444.184C204.295 430.767 202.458 413.293 207.054 393.046C211.651 372.797 222.665 349.873 239.177 325.7C272.198 277.361 327.082 224.207 396.021 177.74Z" stroke="white" stroke-width="2"/>
</svg>
