<svg width="426" height="470" viewBox="0 0 426 470" fill="none" xmlns="http://www.w3.org/2000/svg">
<path d="M-102.379 288.186C-33.4401 241.719 36.4235 210.788 93.6212 198.318C122.223 192.083 147.605 190.475 168.1 193.812C188.592 197.148 204.1 205.408 213.143 218.825C222.187 232.241 224.024 249.716 219.427 269.962C214.831 290.211 203.816 313.136 187.304 337.308C154.284 385.648 99.3993 438.801 30.4605 485.268C-38.4782 531.735 -108.342 562.666 -165.539 575.136C-194.141 581.371 -219.524 582.979 -240.018 579.642C-260.51 576.306 -276.018 568.046 -285.061 554.629C-294.105 541.213 -295.942 523.738 -291.346 503.492C-286.749 483.243 -275.735 460.318 -259.223 436.146C-226.202 387.806 -171.318 334.653 -102.379 288.186Z" stroke="white" stroke-width="2"/>
<path d="M-44.1791 308.463C24.7596 261.996 94.6232 231.066 151.821 218.596C180.423 212.36 205.805 210.752 226.299 214.089C246.791 217.425 262.3 225.685 271.343 239.102C280.386 252.519 282.223 269.993 277.627 290.24C273.03 310.488 262.016 333.413 245.504 357.586C212.484 405.925 157.599 459.079 88.6602 505.545C19.7215 552.012 -50.1421 582.943 -107.34 595.413C-135.942 601.648 -161.324 603.256 -181.818 599.919C-202.31 596.583 -217.818 588.323 -226.862 574.907C-235.905 561.49 -237.742 544.015 -233.146 523.769C-228.549 503.52 -217.535 480.595 -201.023 456.423C-168.003 408.083 -113.118 354.93 -44.1791 308.463Z" stroke="white" stroke-width="2"/>
<path d="M14.0211 328.74C82.9598 282.274 152.823 251.343 210.021 238.873C238.623 232.637 264.005 231.03 284.5 234.366C304.991 237.703 320.5 245.962 329.543 259.379C338.586 272.796 340.424 290.27 335.827 310.517C331.231 330.766 320.216 353.691 303.704 377.863C270.684 426.203 215.799 479.356 146.86 525.823C77.9217 572.29 8.05809 603.22 -49.1395 615.69C-77.7414 621.926 -103.124 623.534 -123.618 620.197C-144.11 616.86 -159.618 608.601 -168.662 595.184C-177.705 581.767 -179.542 564.293 -174.946 544.046C-170.349 523.797 -159.335 500.873 -142.823 476.7C-109.802 428.361 -54.9176 375.207 14.0211 328.74Z" stroke="white" stroke-width="2"/>
</svg>
