<svg width="37" height="36" viewBox="0 0 37 36" fill="none" xmlns="http://www.w3.org/2000/svg">
<path d="M12.1837 8.10525C12.9943 8.0902 13.8037 8.1733 14.5944 8.35275C15.2601 8.49809 15.8921 8.76853 16.4568 9.14971C16.9784 9.52876 17.3911 10.0383 17.6535 10.6273C17.9551 11.3516 18.1005 12.1312 18.0805 12.9155C18.1147 13.7766 17.8948 14.6288 17.4481 15.3658C16.9782 16.0619 16.3286 16.6178 15.5683 16.9746C16.6001 17.2527 17.4988 17.8899 18.1027 18.7714C18.6825 19.7055 18.974 20.7899 18.9405 21.8887C18.9597 22.7649 18.7785 23.6339 18.4109 24.4294C18.0711 25.1234 17.5735 25.7281 16.958 26.1953C16.3244 26.6574 15.6113 26.9992 14.8542 27.2039C14.0692 27.4211 13.2581 27.5302 12.4436 27.5281H3.5V8.10525H12.1837ZM11.6676 15.961C12.3045 15.9873 12.9315 15.7966 13.4459 15.4202C13.6923 15.2009 13.884 14.927 14.0056 14.6203C14.1272 14.3137 14.1754 13.9829 14.1464 13.6543C14.1629 13.2705 14.0865 12.8884 13.9236 12.5405C13.7855 12.2635 13.5707 12.032 13.3049 11.8735C13.0356 11.699 12.733 11.5823 12.4163 11.5307C12.0727 11.4641 11.7231 11.4339 11.3731 11.4404H7.55164V15.9784H11.6676V15.961ZM11.8904 24.2301C12.2756 24.2353 12.6599 24.1938 13.0351 24.1064C13.3779 24.0307 13.7031 23.8899 13.9929 23.6918C14.2769 23.4938 14.5063 23.2273 14.66 22.9171C14.8381 22.5216 14.92 22.0894 14.8988 21.6561C14.9374 21.2612 14.8851 20.8627 14.7459 20.4912C14.6067 20.1197 14.3843 19.785 14.0956 19.5127C13.4839 19.0622 12.7343 18.839 11.9758 18.8816H7.55164V24.2301H11.8904Z" />
<path d="M24.7111 24.1583C25.0291 24.4531 25.4037 24.6801 25.8122 24.8256C26.2206 24.9711 26.6544 25.0321 27.0871 25.0048C27.7732 25.0221 28.4459 24.8134 29.0016 24.4108C29.4537 24.1168 29.7961 23.6818 29.9755 23.1733H33.2067C32.8624 24.6209 32.0217 25.9022 30.8306 26.7942C29.6881 27.5526 28.3378 27.9367 26.9671 27.8932C25.9888 27.906 25.018 27.7221 24.1121 27.3524C23.2928 27.0106 22.5579 26.4941 21.9589 25.8389C21.3621 25.1523 20.9036 24.3568 20.6087 23.4962C20.2777 22.5343 20.1157 21.5224 20.1298 20.5052C20.1238 19.505 20.2913 18.5114 20.6248 17.5685C21.0729 16.242 21.9298 15.0916 23.0723 14.2823C24.2149 13.4731 25.5844 13.0465 26.9844 13.064C28.0181 13.0423 29.0402 13.2842 29.9545 13.7669C30.7809 14.22 31.4939 14.8547 32.0397 15.6231C32.598 16.4295 32.9982 17.3344 33.2191 18.29C33.4612 19.3161 33.5476 20.3728 33.4752 21.4246H23.851C23.773 22.4128 24.0814 23.3928 24.7111 24.1583ZM28.9335 16.7716C28.6642 16.5022 28.3403 16.2936 27.9836 16.16C27.6269 16.0264 27.2457 15.9708 26.8656 15.9969C26.3615 15.9776 25.8609 16.0894 25.4128 16.3211C25.0575 16.5167 24.7439 16.7799 24.4896 17.0958C24.2642 17.392 24.0963 17.7278 23.9946 18.0858C23.9029 18.3844 23.8456 18.6925 23.8238 19.0041H29.7849C29.733 18.1918 29.4371 17.4141 28.936 16.7728L28.9335 16.7716Z" />
<path d="M30.525 9.4021H23.0553V11.3116H30.525V9.4021Z" />
</svg>
