<svg width="288" height="815" viewBox="0 0 288 815" fill="none" xmlns="http://www.w3.org/2000/svg">
<path d="M-240.381 288.186C-171.442 241.719 -101.578 210.788 -44.3806 198.319C-15.7787 192.083 9.60377 190.475 30.0981 193.812C50.5898 197.148 66.0982 205.408 75.1415 218.825C84.1848 232.242 86.0219 249.716 81.4258 269.962C76.829 290.211 65.8146 313.136 49.3027 337.308C16.2824 385.648 -38.6024 438.801 -107.541 485.268C-176.48 531.735 -246.344 562.666 -303.541 575.136C-332.143 581.371 -357.525 582.979 -378.02 579.642C-398.512 576.306 -414.02 568.046 -423.063 554.629C-432.107 541.213 -433.944 523.738 -429.347 503.492C-424.751 483.243 -413.736 460.318 -397.224 436.146C-364.204 387.806 -309.319 334.653 -240.381 288.186Z" stroke="#2E3338" stroke-width="2"/>
<path d="M-182.181 308.463C-113.242 261.996 -43.3782 231.066 13.8194 218.596C42.4212 212.36 67.8037 210.752 88.298 214.089C108.79 217.426 124.298 225.685 133.341 239.102C142.385 252.519 144.222 269.993 139.626 290.24C135.029 310.489 124.015 333.413 107.503 357.586C74.4824 405.925 19.5975 459.079 -49.3412 505.545C-118.28 552.012 -188.144 582.943 -245.341 595.413C-273.943 601.648 -299.326 603.256 -319.82 599.92C-340.312 596.583 -355.82 588.324 -364.863 574.907C-373.907 561.49 -375.744 544.016 -371.147 523.769C-366.551 503.52 -355.536 480.595 -339.024 456.423C-306.004 408.083 -251.119 354.93 -182.181 308.463Z" stroke="#2E3338" stroke-width="2"/>
<path d="M-123.981 328.74C-55.0419 282.274 14.8217 251.343 72.0194 238.873C100.621 232.637 126.004 231.03 146.498 234.366C166.99 237.703 182.498 245.962 191.541 259.379C200.585 272.796 202.422 290.27 197.826 310.517C193.229 330.766 182.215 353.691 165.703 377.863C132.682 426.203 77.7975 479.356 8.85872 525.823C-60.08 572.29 -129.944 603.22 -187.141 615.69C-215.743 621.926 -241.126 623.534 -261.62 620.197C-282.112 616.86 -297.62 608.601 -306.663 595.184C-315.707 581.767 -317.544 564.293 -312.948 544.046C-308.351 523.797 -297.336 500.873 -280.825 476.7C-247.804 428.361 -192.919 375.207 -123.981 328.74Z" stroke="#2E3338" stroke-width="2"/>
</svg>
