<svg width="104" height="434" viewBox="0 0 104 434" fill="none" xmlns="http://www.w3.org/2000/svg">
<path d="M-177.486 153.517C-140.778 128.775 -103.576 112.305 -73.1197 105.665C-57.8897 102.344 -44.374 101.488 -33.4612 103.265C-22.5497 105.041 -14.2918 109.44 -9.47634 116.584C-4.66093 123.728 -3.6827 133.033 -6.13009 143.814C-8.57777 154.596 -14.4427 166.803 -23.235 179.674C-40.8178 205.414 -70.043 233.717 -106.752 258.46C-143.46 283.203 -180.661 299.673 -211.118 306.313C-226.348 309.633 -239.864 310.489 -250.777 308.713C-261.688 306.936 -269.946 302.538 -274.761 295.394C-279.577 288.25 -280.555 278.945 -278.108 268.164C-275.66 257.382 -269.795 245.175 -261.003 232.303C-243.42 206.563 -214.195 178.26 -177.486 153.517Z" stroke="#2E3338" stroke-width="1.06496"/>
<path d="M-146.496 164.315C-109.787 139.572 -72.5862 123.102 -42.1295 116.462C-26.8995 113.141 -13.3838 112.285 -2.47094 114.062C8.44057 115.839 16.6985 120.237 21.5139 127.381C26.3293 134.525 27.3075 143.83 24.8601 154.611C22.4125 165.393 16.5475 177.6 7.7552 190.471C-9.82753 216.211 -39.0527 244.515 -75.7614 269.257C-112.47 294 -149.671 310.47 -180.128 317.11C-195.358 320.431 -208.874 321.287 -219.786 319.51C-230.698 317.733 -238.956 313.335 -243.771 306.191C-248.587 299.047 -249.565 289.742 -247.117 278.961C-244.67 268.179 -238.805 255.972 -230.013 243.101C-212.43 217.361 -183.205 189.057 -146.496 164.315Z" stroke="#2E3338" stroke-width="1.06496"/>
<path d="M-115.505 175.112C-78.7966 150.369 -41.5955 133.899 -11.1388 127.259C4.09122 123.939 17.6069 123.083 28.5198 124.859C39.4313 126.636 47.6892 131.034 52.5046 138.178C57.32 145.322 58.2983 154.627 55.8509 165.408C53.4032 176.19 47.5382 188.397 38.7459 201.269C21.1632 227.009 -8.06202 255.312 -44.7707 280.055C-81.4793 304.797 -118.68 321.267 -149.137 327.907C-164.367 331.228 -177.883 332.084 -188.796 330.307C-199.707 328.531 -207.965 324.133 -212.78 316.988C-217.596 309.844 -218.574 300.539 -216.127 289.758C-213.679 278.976 -207.814 266.769 -199.022 253.898C-181.439 228.158 -152.214 199.855 -115.505 175.112Z" stroke="#2E3338" stroke-width="1.06496"/>
<path d="M9.56207 79.4034C13.6768 77.6855 16.9513 74.411 18.6692 70.2963C20.387 74.411 23.6616 77.6855 27.7763 79.4034C23.6616 81.1212 20.387 84.3958 18.6692 88.5105C16.9513 84.3958 13.6768 81.1212 9.56207 79.4034Z" stroke="#2E3338" stroke-width="1.06496"/>
<path d="M50.5002 157.146C53.1484 155.943 55.2729 153.819 56.4753 151.171C57.6776 153.819 59.8021 155.943 62.4503 157.146C59.8021 158.348 57.6776 160.473 56.4753 163.121C55.2729 160.473 53.1484 158.348 50.5002 157.146Z" fill="#2E3338" stroke="#2E3338" stroke-width="1.06496"/>
</svg>
