<svg width="262" height="683" viewBox="0 0 262 683" fill="none" xmlns="http://www.w3.org/2000/svg">
<path d="M279.621 156.186C348.56 109.719 418.424 78.7884 475.621 66.3185C504.223 60.0829 529.605 58.4749 550.1 61.8118C570.592 65.1483 586.1 73.4078 595.143 86.8246C604.187 100.241 606.024 117.716 601.427 137.962C596.831 158.211 585.816 181.136 569.304 205.308C536.284 253.648 481.399 306.801 412.461 353.268C343.522 399.735 273.658 430.666 216.461 443.136C187.859 449.371 162.476 450.979 141.982 447.642C121.49 444.306 105.982 436.046 96.9385 422.629C87.8952 409.213 86.0581 391.738 90.6543 371.492C95.251 351.243 106.265 328.318 122.777 304.146C155.798 255.806 210.682 202.653 279.621 156.186Z" stroke="#2E3338" stroke-width="2"/>
<path d="M337.821 176.463C406.76 129.996 476.623 99.0656 533.821 86.5957C562.423 80.3601 587.805 78.7522 608.299 82.089C628.791 85.4255 644.3 93.6851 653.343 107.102C662.386 120.519 664.223 137.993 659.627 158.24C655.03 178.488 644.016 201.413 627.504 225.586C594.484 273.925 539.599 327.079 470.66 373.545C401.722 420.012 331.858 450.943 274.66 463.413C246.058 469.648 220.676 471.256 200.182 467.919C179.69 464.583 164.182 456.323 155.138 442.907C146.095 429.49 144.258 412.015 148.854 391.769C153.451 371.52 164.465 348.595 180.977 324.423C213.997 276.083 268.882 222.93 337.821 176.463Z" stroke="#2E3338" stroke-width="2"/>
<path d="M396.021 196.74C464.96 150.274 534.823 119.343 592.021 106.873C620.623 100.637 646.005 99.0295 666.5 102.366C686.991 105.703 702.5 113.962 711.543 127.379C720.586 140.796 722.424 158.27 717.827 178.517C713.231 198.766 702.216 221.69 685.704 245.863C652.684 294.203 597.799 347.356 528.86 393.823C459.922 440.29 390.058 471.22 332.86 483.69C304.259 489.926 278.876 491.534 258.382 488.197C237.89 484.86 222.382 476.601 213.338 463.184C204.295 449.767 202.458 432.293 207.054 412.046C211.651 391.797 222.665 368.873 239.177 344.7C272.198 296.361 327.082 243.207 396.021 196.74Z" stroke="#2E3338" stroke-width="2"/>
</svg>
