<svg width="122" height="353" viewBox="0 0 122 353" fill="none" xmlns="http://www.w3.org/2000/svg">
<path d="M148.499 72.5019C185.204 47.7617 222.402 31.2933 252.855 24.6539C268.084 21.3339 281.598 20.4778 292.51 22.2544C303.42 24.0309 311.677 28.4285 316.492 35.572C321.307 42.7155 322.285 52.0193 319.838 62.7991C317.391 73.5803 311.526 85.786 302.735 98.6561C285.154 124.394 255.932 152.694 219.227 177.434C182.522 202.174 145.324 218.643 114.871 225.282C99.6423 228.602 86.128 229.458 75.2162 227.682C64.3058 225.905 56.0487 221.507 51.2338 214.364C46.4189 207.221 45.4407 197.917 47.8879 187.137C50.3353 176.356 56.1997 164.15 64.9911 151.28C82.572 125.542 111.794 97.2421 148.499 72.5019Z" stroke="#2E3338" stroke-width="1.06486"/>
<path d="M179.487 83.2981C216.191 58.5579 253.389 42.0895 283.842 35.4502C299.071 32.1302 312.585 31.2741 323.497 33.0507C334.407 34.8271 342.664 39.2248 347.479 46.3683C352.294 53.5118 353.272 62.8156 350.825 73.5954C348.378 84.3765 342.514 96.5823 333.722 109.452C316.141 135.19 286.919 163.49 250.214 188.23C213.509 212.971 176.312 229.439 145.858 236.078C130.63 239.398 117.115 240.254 106.204 238.478C95.2931 236.701 87.036 232.304 82.2211 225.16C77.4062 218.017 76.428 208.713 78.8752 197.933C81.3226 187.152 87.187 174.946 95.9784 162.076C113.559 136.339 142.782 108.038 179.487 83.2981Z" stroke="#2E3338" stroke-width="1.06486"/>
<path d="M210.474 94.0943C247.179 69.3541 284.376 52.8857 314.83 46.2463C330.058 42.9263 343.573 42.0702 354.484 43.8469C365.395 45.6233 373.652 50.0209 378.467 57.1644C383.282 64.3079 384.26 73.6117 381.813 84.3915C379.365 95.1727 373.501 107.378 364.709 120.248C347.128 145.986 317.906 174.286 281.201 199.027C244.496 223.767 207.299 240.235 176.845 246.874C161.617 250.194 148.103 251.051 137.191 249.274C126.28 247.498 118.023 243.1 113.208 235.956C108.393 228.813 107.415 219.509 109.862 208.729C112.31 197.948 118.174 185.742 126.966 172.872C144.547 147.135 173.769 118.835 210.474 94.0943Z" stroke="#2E3338" stroke-width="1.06486"/>
<path d="M66.9898 134.697C71.5413 133.008 75.1329 129.416 76.8219 124.865C78.5109 129.416 82.1025 133.008 86.654 134.697C82.1025 136.386 78.5109 139.978 76.8219 144.529C75.1329 139.978 71.5413 136.386 66.9898 134.697Z" fill="#2E3338" stroke="#2E3338" stroke-width="0.532428"/>
</svg>
