<svg width="104" height="239" viewBox="0 0 104 239" fill="none" xmlns="http://www.w3.org/2000/svg">
<path d="M149.004 -41.4981C185.709 -66.2383 222.906 -82.7067 253.36 -89.3461C268.588 -92.6661 282.102 -93.5222 293.014 -91.7456C303.924 -89.9691 312.182 -85.5715 316.996 -78.428C321.811 -71.2845 322.79 -61.9807 320.342 -51.2009C317.895 -40.4197 312.031 -28.214 303.239 -15.3439C285.658 10.3935 256.436 38.6939 219.731 63.4341C183.026 88.1743 145.829 104.643 115.375 111.282C100.147 114.602 86.6323 115.458 75.7206 113.682C64.8102 111.905 56.5531 107.507 51.7382 100.364C46.9233 93.2205 45.9451 83.9167 48.3923 73.1369C50.8397 62.3557 56.7041 50.15 65.4955 37.2799C83.0764 11.5425 112.299 -16.7579 149.004 -41.4981Z" stroke="#F9F9F9" stroke-width="1.06486"/>
<path d="M179.991 -30.7019C216.696 -55.4421 253.893 -71.9105 284.347 -78.5498C299.575 -81.8698 313.09 -82.7259 324.001 -80.9493C334.912 -79.1729 343.169 -74.7752 347.984 -67.6317C352.799 -60.4882 353.777 -51.1844 351.33 -40.4046C348.882 -29.6235 343.018 -17.4177 334.227 -4.54766C316.646 21.1898 287.423 49.4902 250.718 74.2304C214.013 98.9706 176.816 115.439 146.362 122.078C131.134 125.398 117.62 126.254 106.708 124.478C95.7975 122.701 87.5404 118.304 82.7255 111.16C77.9106 104.017 76.9324 94.7129 79.3796 83.9331C81.827 73.152 87.6914 60.9463 96.4828 48.0762C114.064 22.3388 143.286 -5.96164 179.991 -30.7019Z" stroke="#F9F9F9" stroke-width="1.06486"/>
<path d="M210.978 -19.9057C247.683 -44.6459 284.881 -61.1143 315.334 -67.7537C330.563 -71.0737 344.077 -71.9298 354.989 -70.1531C365.899 -68.3767 374.156 -63.9791 378.971 -56.8356C383.786 -49.6921 384.764 -40.3883 382.317 -29.6085C379.87 -18.8273 374.005 -6.62159 365.214 6.24848C347.633 31.9859 318.411 60.2863 281.706 85.0265C245.001 109.767 207.803 126.235 177.35 132.874C162.121 136.194 148.607 137.051 137.695 135.274C126.785 133.498 118.528 129.1 113.713 121.956C108.898 114.813 107.92 105.509 110.367 94.7293C112.814 83.9481 118.679 71.7424 127.47 58.8723C145.051 33.1349 174.273 4.8345 210.978 -19.9057Z" stroke="#F9F9F9" stroke-width="1.06486"/>
<path d="M30.8165 162.712C35.368 161.023 38.9596 157.431 40.6486 152.88C42.3375 157.431 45.9291 161.023 50.4807 162.712C45.9291 164.401 42.3375 167.993 40.6486 172.544C38.9596 167.993 35.368 164.401 30.8165 162.712Z" fill="#F9F9F9" stroke="#F9F9F9" stroke-width="0.532428"/>
</svg>
