<svg width="24" height="25" viewBox="0 0 24 25" fill="none" xmlns="http://www.w3.org/2000/svg">
<path d="M5.63603 18.7705C6.02656 19.161 6.65972 19.161 7.05024 18.7705L18.364 7.45675C18.7545 7.06623 18.7545 6.43306 18.364 6.04254C17.9734 5.65201 17.3403 5.65202 16.9497 6.04254L5.63603 17.3562C5.24551 17.7468 5.24551 18.3799 5.63603 18.7705Z" />
<path d="M7.05025 6.02058C6.65972 5.63006 6.02656 5.63006 5.63603 6.02058C5.24551 6.41111 5.24551 7.04427 5.63603 7.4348L16.9497 18.7485C17.3403 19.139 17.9734 19.139 18.364 18.7485C18.7545 18.358 18.7545 17.7248 18.364 17.3343L7.05025 6.02058Z" />
</svg>
