<svg width="36" height="36" viewBox="0 0 36 36" fill="none" xmlns="http://www.w3.org/2000/svg">
<path d="M30.4755 6.2336C28.181 5.18078 25.7205 4.40511 23.1478 3.96085C23.101 3.95227 23.0542 3.9737 23.0301 4.01656C22.7136 4.57938 22.3631 5.31363 22.1176 5.89074C19.3506 5.47649 16.5978 5.47649 13.8875 5.89074C13.642 5.3008 13.2787 4.57938 12.9609 4.01656C12.9367 3.97513 12.8899 3.9537 12.8431 3.96085C10.2719 4.40369 7.81134 5.17936 5.5154 6.2336C5.49553 6.24217 5.47849 6.25647 5.46718 6.27503C0.800088 13.2476 -0.478425 20.0487 0.14877 26.7656C0.151608 26.7984 0.170055 26.8299 0.195597 26.8498C3.27481 29.1111 6.25756 30.484 9.18492 31.3939C9.23177 31.4082 9.28141 31.3911 9.31122 31.3525C10.0037 30.4068 10.621 29.4097 11.1502 28.3612C11.1814 28.2998 11.1516 28.2269 11.0878 28.2026C10.1087 27.8312 9.1764 27.3784 8.27959 26.8641C8.20866 26.8227 8.20298 26.7213 8.26824 26.6727C8.45696 26.5313 8.64573 26.3841 8.82593 26.2356C8.85853 26.2084 8.90397 26.2027 8.9423 26.2198C14.8339 28.9098 21.2123 28.9098 27.0344 26.2198C27.0728 26.2013 27.1182 26.207 27.1522 26.2341C27.3325 26.3827 27.5212 26.5313 27.7113 26.6727C27.7766 26.7213 27.7723 26.8227 27.7014 26.8641C26.8046 27.3884 25.8723 27.8312 24.8918 28.2012C24.8279 28.2255 24.7995 28.2998 24.8308 28.3612C25.3714 29.4083 25.9887 30.4054 26.6683 31.3511C26.6967 31.3911 26.7478 31.4082 26.7946 31.3939C29.7362 30.484 32.7189 29.1111 35.7981 26.8498C35.8251 26.8299 35.8422 26.7998 35.845 26.767C36.5956 19.0016 34.5877 12.2562 30.5223 6.27645C30.5124 6.25647 30.4954 6.24217 30.4755 6.2336ZM12.03 22.6757C10.2562 22.6757 8.7947 21.0473 8.7947 19.0473C8.7947 17.0474 10.2279 15.4189 12.03 15.4189C13.8463 15.4189 15.2937 17.0617 15.2653 19.0473C15.2653 21.0473 13.8321 22.6757 12.03 22.6757ZM23.9921 22.6757C22.2184 22.6757 20.7568 21.0473 20.7568 19.0473C20.7568 17.0474 22.19 15.4189 23.9921 15.4189C25.8084 15.4189 27.2558 17.0617 27.2275 19.0473C27.2275 21.0473 25.8084 22.6757 23.9921 22.6757Z" fill="#F9F9F9"/>
</svg>
