<svg width="36" height="36" viewBox="0 0 36 36" fill="none" xmlns="http://www.w3.org/2000/svg">
<path fill-rule="evenodd" clip-rule="evenodd" d="M18 3C9.7191 3 3 9.7191 3 18C3 26.2809 9.7191 33 18 33C26.2646 33 33 26.2809 33 18C33 9.7191 26.2646 3 18 3ZM27.9078 9.91431C29.6974 12.0944 30.7712 14.8764 30.8037 17.8861C30.3807 17.8048 26.1508 16.9425 21.8883 17.4794C21.7907 17.2679 21.7093 17.0401 21.6117 16.8124C21.3514 16.1941 21.0586 15.5597 20.7657 14.9577C25.4837 13.038 27.6312 10.2722 27.9078 9.91431ZM18 5.21258C21.2538 5.21258 24.231 6.43275 26.4924 8.43384C26.2646 8.75922 24.3286 11.346 19.7733 13.0542C17.6746 9.19848 15.3482 6.0423 14.9902 5.55423C15.9501 5.32646 16.9588 5.21258 18 5.21258ZM12.5499 6.41649C12.8915 6.87201 15.1692 10.0445 17.3004 13.8189C11.3134 15.4132 6.02604 15.3807 5.45662 15.3807C6.28632 11.4111 8.97072 8.10846 12.5499 6.41649ZM5.18004 18.0163C5.18004 17.8861 5.18004 17.756 5.18004 17.6258C5.73319 17.6421 11.948 17.7234 18.3416 15.8037C18.7158 16.5195 19.0575 17.2516 19.3829 17.9837C19.2202 18.0326 19.0412 18.0814 18.8785 18.1301C12.2733 20.2614 8.75922 26.0857 8.46639 26.5738C6.43275 24.3124 5.18004 21.3026 5.18004 18.0163ZM18 30.82C15.0391 30.82 12.3059 29.8113 10.1421 28.1193C10.3699 27.6475 12.9729 22.6367 20.1963 20.115C20.2289 20.0987 20.2451 20.0987 20.2777 20.0824C22.0835 24.7516 22.8156 28.6724 23.0108 29.795C21.4653 30.462 19.7733 30.82 18 30.82ZM25.1421 28.6237C25.0119 27.8427 24.3287 24.1009 22.6529 19.4968C26.6714 18.8623 30.1855 19.9035 30.6247 20.0499C30.0716 23.6128 28.0217 26.6876 25.1421 28.6237Z" fill="white"/>
</svg>
