<svg id="e4JLasMfzIS1" xmlns="http://www.w3.org/2000/svg" xmlns:xlink="http://www.w3.org/1999/xlink" viewBox="0 0 745 667" shape-rendering="geometricPrecision" text-rendering="geometricPrecision">
<style><![CDATA[
#e4JLasMfzIS16_to {animation: e4JLasMfzIS16_to__to 3000ms linear infinite normal forwards}@keyframes e4JLasMfzIS16_to__to { 0% {offset-distance: 0%} 3.333333% {offset-distance: 3.482903%} 9% {offset-distance: 8.873254%} 25% {offset-distance: 25.000004%} 41% {offset-distance: 41.126704%} 46.666667% {offset-distance: 46.517124%} 50% {offset-distance: 50.000007%} 53.333333% {offset-distance: 53.482895%} 59% {offset-distance: 58.873281%} 75% {offset-distance: 75.000032%} 91% {offset-distance: 91.126742%} 96.666667% {offset-distance: 96.517087%} 100% {offset-distance: 100%}} #e4JLasMfzIS16 {animation: e4JLasMfzIS16_c_o 3000ms linear infinite normal forwards}@keyframes e4JLasMfzIS16_c_o { 0% {opacity: 1} 56.666667% {opacity: 1} 63.333333% {opacity: 0} 93.333333% {opacity: 0} 100% {opacity: 1}}
]]></style>
<g mask="url(#e4JLasMfzIS5)"><g><path d="M637.186,36.1392c11.324,12.1007,14.864,30.629,11.301,54.0272-3.56,23.3836-14.195,51.4536-30.967,82.3896-33.539,61.863-91.508,134.985-165.973,204.67s-151.267,122.683-215.215,152.049c-31.98,14.686-60.692,23.438-84.261,25.442-23.582,2.004-41.836-2.755-53.1595-14.856-11.3239-12.101-14.864-30.629-11.3012-54.027c3.5607-23.384,14.1957-51.454,30.9677-82.39c33.538-61.863,91.508-134.984,165.973-204.67C359.016,129.089,435.817,76.0916,499.766,46.7247c31.98-14.6857,60.692-23.4374,84.26-25.4411c23.583-2.005,41.836,2.7549,53.16,14.8556Z" fill="none" stroke="#2e3338" stroke-width="2"/></g><mask id="e4JLasMfzIS5" mask-type="alpha" x="-150%" y="-150%" height="400%" width="400%"><path d="M74,423l93-103v29.5l384-309-6-17L670,0v375.622C670,536.545,539.545,667,378.622,667h-100.686C148.769,667,51.0773,550.117,74,423Z"/></mask></g><g mask="url(#e4JLasMfzIS9)"><mask id="e4JLasMfzIS9" mask-type="alpha" x="-150%" y="-150%" height="400%" width="400%"><path d="M74,423l93-103v29.5l384-309-6-17L670,0v375.622C670,536.545,539.545,667,378.622,667h-100.686C148.769,667,51.0773,550.117,74,423Z"/></mask></g><g mask="url(#e4JLasMfzIS14)"><g><path d="M701.844,131.634c7.031,15.007,4.672,33.723-5.947,54.875-10.613,21.139-29.401,44.548-54.912,68.788-51.013,48.471-128.741,100.1-221.096,143.364-92.354,43.263-181.774,69.934-251.668,78.102-34.952,4.085-64.964,3.536-87.9977-1.842-23.0482-5.38-38.9371-15.548-45.9674-30.555-7.0304-15.008-4.6717-33.724,5.9472-54.876c10.6125-21.139,29.4005-44.548,54.9115-68.788c51.0144-48.47,128.7414-100.1,221.0964-143.363c92.354-43.264,181.774-69.935,251.668-78.1031c34.952-4.0848,64.964-3.5354,87.998,1.8421c23.048,5.38,38.937,15.548,45.967,30.556Z" fill="none" stroke="#2e3338" stroke-width="2"/></g><mask id="e4JLasMfzIS14" mask-type="alpha" x="-150%" y="-150%" height="400%" width="400%"><path d="M167.5,379.5v-133.5l-101-13L0,493.5l130,95l366-152L744.5,223L730,21.5l-166.5,75l.5,7-3,53.5L217,458.5l-49.5-79Z" fill="#d9d9d9"/></mask></g><g id="e4JLasMfzIS16_to" style="offset-path:path('M637.186,36.1392C648.51,48.2399,652.05,66.7682,648.487,90.1664C644.927,113.55,634.292,141.62,617.52,172.556C583.981,234.419,526.012,307.541,451.547,377.226C377.082,446.911,300.28,499.909,236.332,529.275C204.352,543.961,175.64,552.713,152.071,554.717C128.489,556.721,110.235,551.962,98.9115,539.861C87.5876,527.76,84.0475,509.232,87.6103,485.834C91.171,462.45,101.806,434.38,118.578,403.444C152.116,341.581,210.086,268.46,284.551,198.774C359.016,129.089,435.817,76.0916,499.766,46.7247C531.746,32.039,560.458,23.2873,584.026,21.2836C607.609,19.2786,625.862,24.0385,637.186,36.1392');offset-rotate:0deg"><path id="e4JLasMfzIS16" d="M608.949,31.5c9.586-3.8587,17.192-11.4649,21.051-21.051c3.859,9.5861,11.465,17.1923,21.051,21.051-9.586,3.8587-17.192,11.4649-21.051,21.051-3.859-9.5861-11.465-17.1923-21.051-21.051Z" transform="translate(-630,-31.499999)" fill="#f2fafd" stroke="#2e3338" stroke-width="2"/></g><path d="M642,242.5c1.82,5.707,6.293,10.18,12,12-5.707,1.82-10.18,6.293-12,12-1.82-5.707-6.293-10.18-12-12c5.707-1.82,10.18-6.293,12-12Z" fill="#2e3338"/><path d="M108,297.5c1.82,5.707,6.293,10.18,12,12-5.707,1.82-10.18,6.293-12,12-1.82-5.707-6.293-10.18-12-12c5.707-1.82,10.18-6.293,12-12Z" fill="#2e3338"/></svg>
