<svg width="1623" height="199" viewBox="0 0 1623 199" fill="none" xmlns="http://www.w3.org/2000/svg">
<g opacity="0.25">
<path d="M886.293 190.293C885.902 190.683 885.902 191.317 886.293 191.707L892.657 198.071C893.047 198.462 893.681 198.462 894.071 198.071C894.462 197.681 894.462 197.047 894.071 196.657L888.414 191L894.071 185.343C894.462 184.953 894.462 184.319 894.071 183.929C893.681 183.538 893.047 183.538 892.657 183.929L886.293 190.293ZM887 192H1614V190H887V192ZM1623 183V16H1621V183H1623ZM1614 7H1544V9H1614V7ZM1623 16C1623 11.0294 1618.97 7 1614 7V9C1617.87 9 1621 12.134 1621 16H1623ZM1614 192C1618.97 192 1623 187.971 1623 183H1621C1621 186.866 1617.87 190 1614 190V192Z" fill="#2E3338"/>
<path d="M79.7071 7.29289C80.0977 7.68342 80.0977 8.31658 79.7071 8.70711L73.3431 15.0711C72.9526 15.4616 72.3195 15.4616 71.929 15.0711C71.5384 14.6805 71.5384 14.0474 71.929 13.6569L77.5858 8L71.929 2.34315C71.5384 1.95262 71.5384 1.31946 71.929 0.928932C72.3195 0.538408 72.9526 0.538408 73.3431 0.928932L79.7071 7.29289ZM736 192H9V190H736V192ZM0 183V16H2V183H0ZM9 7H79V9H9V7ZM0 16C0 11.0294 4.02942 7 9 7V9C5.13403 9 2 12.134 2 16H0ZM9 192C4.02942 192 0 187.971 0 183H2C2 186.866 5.13397 190 9 190V192Z" fill="#2E3338"/>
</g>
</svg>
