<?xml version="1.0" standalone="no"?>
<!DOCTYPE svg PUBLIC "-//W3C//DTD SVG 20010904//EN"
 "http://www.w3.org/TR/2001/REC-SVG-20010904/DTD/svg10.dtd">
<svg version="1.0" xmlns="http://www.w3.org/2000/svg"
 width="700.000000pt" height="700.000000pt" viewBox="0 0 700.000000 700.000000"
 preserveAspectRatio="xMidYMid meet">
<metadata>
Created by potrace 1.14, written by Peter Selinger 2001-2017
</metadata>
<g transform="translate(0.000000,700.000000) scale(0.100000,-0.100000)"
fill="#000000" stroke="none">
<path d="M1520 4310 l0 -220 -172 -2 -173 -3 -3 -117 -3 -118 175 0 175 0 4
-492 c3 -433 6 -500 21 -553 41 -138 111 -227 223 -280 103 -48 162 -58 328
-52 82 3 160 8 173 12 21 7 22 11 22 137 l0 130 -32 -8 c-18 -3 -85 -7 -148
-7 -99 0 -122 3 -163 23 -26 12 -59 36 -74 54 -59 70 -58 60 -61 569 l-3 467
241 0 241 0 -3 118 -3 117 -237 3 -238 2 0 220 0 220 -145 0 -145 0 0 -220z"/>
<path d="M4985 4140 c-195 -31 -344 -130 -416 -276 -32 -65 -34 -75 -34 -174
0 -98 2 -110 32 -170 59 -120 164 -198 338 -254 44 -14 156 -46 248 -71 188
-51 268 -83 310 -123 83 -79 75 -186 -20 -258 -55 -42 -153 -64 -280 -64 -148
0 -245 33 -319 107 -43 42 -91 139 -100 201 -6 38 -9 43 -28 38 -11 -3 -74
-18 -138 -32 -138 -32 -135 -27 -88 -154 96 -265 297 -417 577 -438 359 -26
601 74 710 294 37 76 38 81 38 183 0 94 -3 112 -27 164 -32 67 -118 162 -194
212 -71 47 -140 72 -399 145 -219 61 -326 105 -347 143 -37 69 -26 128 32 180
95 87 327 100 471 26 68 -34 135 -113 175 -207 2 -4 275 65 281 72 4 3 -10 38
-30 78 -88 177 -242 303 -439 358 -85 24 -263 34 -353 20z"/>
<path d="M3364 4085 c-87 -238 -253 -426 -468 -532 -49 -23 -95 -43 -102 -43
-36 0 -16 -20 44 -44 209 -85 393 -263 487 -470 18 -39 35 -80 39 -91 5 -15
14 -1 39 61 62 153 190 312 325 403 62 42 182 104 223 114 22 6 18 27 -6 27
-31 0 -196 94 -270 153 -122 99 -227 240 -279 378 -20 52 -26 60 -32 44z"/>
</g>
</svg>
